<svg role="img" xmlns="http://www.w3.org/2000/svg" width="32" height="32" viewBox="0 0 24 24">
    <path fill="#F23F42"
        d="M22.7 2.7a1 1 0 0 0-1.4-1.4l-20 20a1 1 0 1 0 1.4 1.4l20-20ZM17.06 2.94a.48.48 0 0 0-.11-.77A11 11 0 0 0 2.18 16.94c.14.3.53.35.76.12l3.2-3.2c.25-.25.15-.68-.2-.76a5 5 0 0 0-1.02-.1H3.05a9 9 0 0 1 12.66-9.2c.2.09.44.05.59-.1l.76-.76ZM20.2 8.28a.52.52 0 0 1 .1-.58l.76-.76a.48.48 0 0 1 .77.11 11 11 0 0 1-4.5 14.57c-1.27.71-2.73.23-3.55-.74a3.1 3.1 0 0 1-.17-3.78l1.38-1.97a5 5 0 0 1 4.1-2.13h1.86a9.1 9.1 0 0 0-.75-4.72ZM10.1 17.9c.25-.25.65-.18.74.14a3.1 3.1 0 0 1-.62 2.84 2.85 2.85 0 0 1-3.55.74.16.16 0 0 1-.04-.25l3.48-3.48Z"
        class=""></path>
</svg>